<svg version="1.0" xmlns="http://www.w3.org/2000/svg"
     width="300.000000pt" height="265.000000pt" viewBox="0 0 300.000000 265.000000"
     preserveAspectRatio="xMidYMid meet">
  <rect x="0" y="0" width="300" height="265" fill="white"/>

  <g transform="translate(0.000000,265.000000) scale(0.100000,-0.100000)" fill="#c4453b" stroke="none">
    <path d="M802 2230 c-62 -72 -187 -211 -278 -310 l-165 -180 245 0 c135 0 246 -3 246 -8 0 -4 -13 -39 -29 -77 -62 -148 -91 -303 -91 -499 0 -353 123 -678 314 -825 55 -43 170 -101 199 -101 15 0 17 11 17 85 0 98 27 247 65 360 59 176 183 389 295 506 48 51 60 59 93 59 34 0 40 -4 68 -50 39 -63 48 -63 204 -9 132 45 171 63 233 108 70 51 51 107 -57 171 -70 40 -103 75 -114 118 -12 51 85 50 311 -4 57 -13 112 -24 123 -24 11 0 33 20 55 50 20 28 43 54 52 60 15 8 14 14 -11 63 -60 117 -188 230 -355 315 -207 106 -396 156 -952 252 -129 22 -251 45 -270 49 -90 23 -75 31 -198 -109z m316 9 c52 -11 216 -38 365 -60 312 -46 414 -67 547 -110 230 -75 377 -186 453 -341 21 -43 35 -83 31 -89 -9 -15 -496 -6 -597 11 -38 7 -71 9 -75 6 -13 -13 103 -105 228 -180 72 -43 133 -82 135 -86 8 -13 -53 -89 -92 -114 -59 -39 -119 -56 -197 -56 -72 0 -192 27 -247 56 -29 15 -29 15 -87 -47 -137 -148 -243 -323 -302 -498 -34 -100 -70 -269 -70 -326 0 -61 -6 -66 -53 -48 -122 48 -207 135 -272 277 -136 294 -124 798 27 1100 16 32 26 61 23 65 -9 8 -304 6 -339 -3 -35 -9 -34 4 11 77 55 91 170 224 273 316 80 72 95 82 118 76 15 -4 69 -15 120 -26z"/>
    <path d="M879 2050 c-141 -139 -152 -152 -134 -162 12 -7 118 -15 270 -20 137 -4 270 -12 295 -17 25 -6 48 -10 53 -11 4 0 7 -3 7 -7 0 -5 -44 -8 -98 -9 -56 -1 -120 -8 -152 -17 -84 -25 -140 -92 -140 -168 0 -29 2 -30 33 -24 17 4 70 18 116 31 91 26 126 29 165 14 36 -13 32 -30 -6 -30 -17 0 -114 -28 -215 -62 l-183 -63 0 -46 c0 -26 -7 -66 -15 -89 -8 -23 -15 -55 -15 -71 0 -25 4 -29 28 -29 36 0 110 38 205 105 72 51 118 67 131 46 13 -20 -317 -281 -355 -281 -5 0 -9 -39 -9 -87 1 -99 33 -218 60 -218 8 0 47 43 88 95 105 137 161 200 196 221 32 20 56 24 56 11 0 -4 -47 -70 -105 -147 -103 -137 -161 -234 -190 -314 -13 -37 -12 -43 11 -90 23 -45 133 -161 153 -161 5 0 11 24 15 53 18 140 118 373 290 675 146 256 208 397 222 507 4 25 9 45 13 45 3 0 42 -7 86 -15 99 -18 384 -20 474 -3 l66 12 -52 6 c-29 3 -58 11 -65 18 -9 9 0 12 42 12 30 1 83 6 117 13 70 14 70 16 -8 80 -67 54 -220 123 -350 157 -63 17 -249 53 -414 80 -165 28 -343 62 -395 76 -52 14 -105 28 -116 31 -18 4 -52 -24 -175 -147z"/>
    <path d="M2436 1757 c3 -10 9 -15 12 -12 3 3 0 11 -7 18 -10 9 -11 8 -5 -6z"/>
    <path d="M2370 1710 c0 -5 8 -10 19 -10 10 0 24 -7 31 -15 15 -18 61 -21 55 -2 -3 7 -23 18 -45 25 -48 15 -60 15 -60 2z"/>
    <path d="M1730 1591 c0 -4 -24 -45 -54 -89 -57 -86 -75 -131 -56 -142 32 -20 480 -40 480 -22 0 16 -56 86 -95 121 -33 29 -245 141 -267 141 -5 0 -8 -4 -8 -9z"/>
  </g>
</svg>